<?xml version="1.0" standalone="no"?><!DOCTYPE svg PUBLIC "-//W3C//DTD SVG 1.1//EN" "http://www.w3.org/Graphics/SVG/1.1/DTD/svg11.dtd"><svg t="1739947209427" class="icon" viewBox="0 0 1024 1024" version="1.1" xmlns="http://www.w3.org/2000/svg" p-id="9415" xmlns:xlink="http://www.w3.org/1999/xlink" width="200" height="200"><path d="M294.81 583.936a227.686 227.686 0 1 0 455.372 0 227.686 227.686 0 1 0-455.372 0z" fill="#EDC951" p-id="9416"></path><path d="M508.109 829.235c-145.818 0-264.5-118.63-264.5-264.499 0-145.818 118.631-264.5 264.5-264.5 145.817 0 264.499 118.631 264.499 264.5s-118.63 264.5-264.5 264.5z m0-498.227c-128.922 0-233.78 104.858-233.78 233.78 0 128.92 104.858 233.778 233.78 233.778 128.87 0 233.779-104.857 233.779-233.779 0-128.921-104.858-233.779-233.78-233.779z" fill="#333333" p-id="9417"></path><path d="M751.258 495.462c6.912 19.456 11.212 40.09 12.288 61.543 45.875 40.857 67.84 81.817 54.835 112.947-25.549 61.082-191.59 89.498-351.898 28.211-160.307-61.286-279.91-198.81-254.361-259.891 13.312-31.898 58.47-51.763 123.545-50.33 16.077-14.387 23.245-17.766 43.008-27.494-111.667-8.909-202.24 0.358-226.816 59.136-34.355 82.125 80.538 234.547 286.618 313.344 206.08 78.746 425.37 54.016 459.673-28.109 24.064-57.549-37.17-138.803-146.892-209.357z" fill="#FFA750" p-id="9418"></path><path d="M697.395 808.038c-83.61 0-181.35-18.278-275.61-55.91-103.73-41.472-194.662-102.093-255.897-170.752-60.672-67.942-84.02-135.526-64.051-185.395 27.955-69.99 141.21-96.051 295.526-67.994a15.392 15.392 0 0 1 12.442 12.851 15.335 15.335 0 0 1-8.192 15.924c-19.559 10.035-37.479 22.579-53.146 37.273-2.918 2.765-6.758 4.25-10.854 4.147-62.669-1.484-106.496 13.62-117.197 40.346-10.342 25.856 8.602 66.15 50.688 107.776 47.206 46.746 116.48 89.754 195.072 121.19 78.49 31.386 158.003 47.872 223.898 46.336 58.572-1.33 99.737-17.612 110.13-43.52 10.548-26.316-9.01-65.28-53.657-106.854-2.918-2.714-4.659-6.502-4.864-10.496a233.403 233.403 0 0 0-12.083-63.283 15.386 15.386 0 1 1 23.142-17.715c125.696 84.633 186.88 179.61 159.54 247.859-23.296 58.01-107.418 88.217-214.887 88.217zM282.42 347.443c-80.333 0-136.55 20.992-152.064 59.904-15.206 38.093 6.605 95.488 58.42 153.549 58.163 65.178 144.947 122.931 244.377 162.662 98.765 39.476 206.694 58.88 295.987 53.197 81.664-5.171 139.418-30.72 154.47-68.3 19.047-47.617-25.446-118.836-114.585-186.932 1.28 7.834 2.253 15.719 2.816 23.655 51.917 49.92 72.038 98.252 56.78 136.448-15.513 38.81-64.511 61.132-137.932 62.822-69.888 1.536-153.754-15.616-235.98-48.486-82.33-32.922-155.24-78.336-205.262-127.847-52.633-52.121-73.113-102.195-57.6-141.005 15.668-39.219 65.178-60.416 140.237-59.75a263.459 263.459 0 0 1 19.047-15.411c-24.372-3.021-47.412-4.506-68.71-4.506z" fill="#333333" p-id="9419"></path><path d="M407.296 146.893l57.958-48.487-8.704 76.954 38.042 57.498-66.714-17.46-50.534 36.864 14.95-58.828-45.516-56.884z" fill="#FFA750" p-id="9420"></path><path d="M339.302 296.806c-3.072 0-6.144-0.921-8.755-2.764a15.345 15.345 0 0 1-6.093-16.538l21.504-81.562-66.508-80.179a15.3 15.3 0 0 1-1.485-17.459 15.334 15.334 0 0 1 15.82-7.526l88.32 14.592 85.812-69.223a15.285 15.285 0 0 1 17.05-1.485c5.478 3.021 8.55 9.063 7.833 15.258l-13.056 110.9 56.525 82.482a15.34 15.34 0 0 1-16.435 23.552l-97.997-24.678-73.677 51.814a15.168 15.168 0 0 1-8.858 2.816z m-9.932-169.01l45.312 54.63c3.174 3.84 4.3 8.908 3.02 13.721l-12.8 48.538 45.005-31.642a15.466 15.466 0 0 1 12.595-2.355l65.485 16.538-36.813-53.76a15.272 15.272 0 0 1-2.56-10.496l9.319-79.31-61.901 49.92a15.286 15.286 0 0 1-12.134 3.175l-54.528-8.96z" fill="#333333" p-id="9421"></path><path d="M879.616 361.984l28.314-23.654-4.25 37.53 18.586 28.108-32.615-8.5-24.627 17.972 7.27-28.723-22.22-27.802z" fill="#FFA750" p-id="9422"></path><path d="M831.642 445.952c-3.072 0-6.144-0.922-8.756-2.765a15.345 15.345 0 0 1-6.092-16.537l11.366-43.11-35.635-43.009c-4.096-4.915-4.71-11.878-1.485-17.459s9.472-8.55 15.82-7.526l47.31 7.782 46.49-37.478c4.863-3.943 11.622-4.506 17.049-1.485s8.55 9.062 7.833 15.257l-7.116 60.621 30.77 44.903a15.34 15.34 0 0 1-16.434 23.552l-52.839-13.312-39.424 27.75c-2.713 1.894-5.785 2.816-8.857 2.816z m10.752-93.338l14.438 17.408c3.174 3.84 4.3 8.91 3.02 13.722l-2.662 10.035 10.752-7.577c3.687-2.56 8.295-3.43 12.596-2.356l20.275 5.12-11.06-16.128a15.272 15.272 0 0 1-2.56-10.496l3.431-28.979-22.58 18.176c-3.43 2.765-7.833 3.891-12.134 3.226l-13.516-2.15z" fill="#333333" p-id="9423"></path><path d="M610.97 901.99l28.364-23.705-4.3 37.58 18.585 28.11-32.563-8.551-24.678 18.022 7.321-28.774-22.272-27.75z" fill="#FFA750" p-id="9424"></path><path d="M562.995 985.907c-3.072 0-6.144-0.921-8.755-2.765a15.345 15.345 0 0 1-6.093-16.537l11.367-43.11-35.636-43.009c-4.096-4.915-4.71-11.878-1.484-17.459s9.472-8.55 15.82-7.526l47.31 7.782 46.489-37.478a15.285 15.285 0 0 1 17.05-1.485c5.478 3.02 8.55 9.062 7.833 15.258l-7.117 60.62 30.771 44.852a15.34 15.34 0 0 1-16.435 23.552l-52.838-13.312-39.424 27.75c-2.663 1.946-5.786 2.867-8.858 2.867z m10.752-93.286l14.439 17.408c3.174 3.84 4.3 8.909 3.02 13.721l-2.662 10.036 10.752-7.578a15.466 15.466 0 0 1 12.595-2.355l20.275 5.12-11.059-16.128a15.272 15.272 0 0 1-2.56-10.496l3.43-28.98-22.579 18.177c-3.43 2.764-7.782 3.89-12.134 3.225l-13.517-2.15z" fill="#333333" p-id="9425"></path></svg>